<?xml version="1.0" encoding="UTF-8"?>
<!-- Created with Inkscape (http://www.inkscape.org/) -->
<svg width="52.153mm" height="8.5513mm" version="1.1" viewBox="0 0 52.153278 8.5512543" xmlns="http://www.w3.org/2000/svg" xmlns:cc="http://creativecommons.org/ns#" xmlns:dc="http://purl.org/dc/elements/1.1/" xmlns:rdf="http://www.w3.org/1999/02/22-rdf-syntax-ns#">
 <metadata>
  <rdf:RDF>
   <cc:Work rdf:about="">
    <dc:format>image/svg+xml</dc:format>
    <dc:type rdf:resource="http://purl.org/dc/dcmitype/StillImage"/>
    <dc:title/>
   </cc:Work>
  </rdf:RDF>
 </metadata>
 <g transform="translate(-2.7845 -25.496)" fill="#a7d8d3">
  <g stroke-width=".26458" aria-label="GitHub">
   <path d="m22.643 34.047c0.5715 0 1.1324-0.11642 1.6616-0.33867 0.49742-0.22225 0.9525-0.53975 1.3441-0.93133 0.39158-0.40217 0.6985-0.86783 0.91017-1.3864 0.21167-0.53975 0.32808-1.1112 0.32808-1.7039v-0.40217h-4.3603v1.778h2.0532c-0.15875 0.30692-0.40217 0.5715-0.70908 0.75142-0.34925 0.22225-0.77258 0.33867-1.2277 0.33867-0.59267 0-1.1536-0.24342-1.5663-0.67733-0.41275-0.4445-0.64558-1.0266-0.64558-1.6616 0-0.635 0.23283-1.2277 0.64558-1.6722s0.97367-0.68792 1.5663-0.68792c0.42333 0 0.83608 0.11642 1.1853 0.33867 0.34925 0.21167 0.635 0.51858 0.83608 0.87842l0.08467 0.15875 1.5769-1.143-0.07408-0.127c-0.37042-0.59267-0.889-1.0901-1.5134-1.4393-0.635-0.35983-1.3652-0.55033-2.1061-0.55033-0.5715 0-1.1218 0.11642-1.6404 0.33867-0.49742 0.21167-0.94192 0.51858-1.3335 0.91017-0.39158 0.39158-0.68792 0.83608-0.89958 1.3441-0.22225 0.51858-0.32808 1.0795-0.32808 1.651 0 0.5715 0.10583 1.1324 0.32808 1.651 0.21167 0.508 0.51858 0.9525 0.89958 1.3441 0.79375 0.79375 1.8521 1.2382 2.9845 1.2382zm-0.01058-8.1598c0.68792 0 1.3547 0.17992 1.9473 0.508 0.52917 0.29633 0.98425 0.70908 1.3229 1.2065l-1.0478 0.762c-0.22225-0.33867-0.508-0.635-0.85725-0.84667-0.40217-0.24342-0.87842-0.381-1.3547-0.381-0.68792 0-1.3229 0.27517-1.7992 0.78317-0.46567 0.508-0.73025 1.1748-0.73025 1.8944 0 0.70908 0.26458 1.3758 0.73025 1.8732 0.47625 0.508 1.1112 0.78317 1.7992 0.78317 0.508 0 0.99483-0.127 1.397-0.381 0.43392-0.26458 0.75142-0.65617 0.93133-1.1324l0.08467-0.21167h-2.2119v-1.143h3.7253v0.08467c0 1.0901-0.41275 2.1061-1.1536 2.8681-0.73025 0.75142-1.7251 1.1748-2.7728 1.1748s-2.032-0.40217-2.7622-1.143c-0.73025-0.74083-1.1324-1.7251-1.1324-2.7728 0-1.0477 0.40217-2.032 1.1324-2.7728 0.73025-0.74083 1.7145-1.1536 2.7517-1.1536z"/>
   <path d="m29.431 28.248h-1.8203v5.6621h1.8203zm-1.5028 0.3175h1.1853v5.0271h-1.1853zm0.58208-0.94192c0.28575 0 0.55033-0.10583 0.75142-0.29633 0.20108-0.1905 0.30692-0.4445 0.30692-0.71967 0-0.254-0.11642-0.508-0.30692-0.68792-0.20108-0.1905-0.46567-0.29633-0.75142-0.29633-0.26458 0-0.51858 0.10583-0.71967 0.29633-0.1905 0.1905-0.30692 0.4445-0.30692 0.68792 0 0.55033 0.46567 1.016 1.0266 1.016zm0-1.6828c0.40217 0 0.74083 0.30692 0.74083 0.66675 0 0.17992-0.07408 0.35983-0.21167 0.48683-0.13758 0.13758-0.32808 0.21167-0.52917 0.21167-0.17992 0-0.35983-0.07408-0.49742-0.21167-0.13758-0.127-0.21167-0.30692-0.21167-0.48683 0-0.15875 0.07408-0.32808 0.21167-0.45508 0.13758-0.13758 0.3175-0.21167 0.49742-0.21167z"/>
   <path d="m33.696 32.216h-0.15875c-0.3175 0-0.59267-0.0635-0.78317-0.1905-0.1905-0.11642-0.29633-0.29633-0.29633-0.52917v-1.5452h1.27v-1.7039h-1.27v-1.9368l-1.8203 1.3123v0.62442h-0.80433v1.7039h0.80433v1.5875c0 0.35983 0.07408 0.70908 0.22225 1.016 0.13758 0.30692 0.34925 0.5715 0.61383 0.79375 0.254 0.21167 0.56092 0.381 0.92075 0.49742 0.34925 0.11642 0.74083 0.17992 1.143 0.17992h0.15875zm-3.5454-3.6512h0.80433v-0.77258l1.1853-0.86783v1.6404h1.27v1.0689h-1.27v1.8627c0 0.60325 0.47625 0.98425 1.2382 1.0372v1.1748c-0.66675-0.03175-1.27-0.24342-1.7039-0.60325-0.46567-0.39158-0.71967-0.94192-0.71967-1.5663v-1.905h-0.80433z"/>
   <path d="m41.645 25.708h-1.9579v2.9528h-3.302v-2.9528h-1.9579v8.2021h1.9579v-3.4608h3.302v3.4608h1.9579zm-1.6404 4.4238h-3.937v3.4608h-1.3229v-7.5671h1.3229v2.9528h3.937v-2.9528h1.3229v7.5671h-1.3229z"/>
   <path d="m45.208 34.026c0.28575 0 0.59267-0.05292 0.86783-0.13758 0.17992-0.05292 0.32808-0.11642 0.46567-0.1905v0.21167h1.8098v-5.6621h-1.8098v2.8152c0 0.40217-0.11642 0.70908-0.33867 0.89958-0.24342 0.21167-0.56092 0.254-0.79375 0.254-0.53975 0-0.94192-0.49742-0.94192-1.1536v-2.8152h-1.8203v2.9422c0 0.75142 0.254 1.4605 0.70908 1.9897 0.47625 0.53975 1.1324 0.84667 1.8521 0.84667zm-1.0583-5.461v2.4977c0 0.40217 0.127 0.77258 0.35983 1.0478 0.23283 0.26458 0.55033 0.42333 0.89958 0.42333 0.40217 0 0.75142-0.11642 0.99483-0.32808 0.30692-0.254 0.45508-0.64558 0.45508-1.143v-2.4977h1.1748v5.0271h-1.1748v-0.635c-0.47625 0.635-1.1642 0.75142-1.651 0.75142-0.62442 0-1.1959-0.26458-1.6087-0.74083-0.41275-0.46567-0.635-1.1007-0.635-1.778v-2.6247z"/>
   <path d="m52.154 34.026c0.75142 0 1.4499-0.3175 1.9791-0.87842 0.51858-0.55033 0.80433-1.2912 0.80433-2.0638 0-0.79375-0.29633-1.5346-0.8255-2.0849-0.254-0.27517-0.55033-0.48683-0.87842-0.635-0.34925-0.15875-0.70908-0.23283-1.0795-0.23283-0.381 0-0.8255 0.127-1.143 0.3175v-2.7411h-1.8203v8.2021h1.8203v-0.20108c0.11642 0.07408 0.24342 0.127 0.33867 0.16933 0.254 0.09525 0.53975 0.14817 0.80433 0.14817zm-1.4605-0.43392h-1.1853v-7.5671h1.1853v3.1538c0.39158-0.58208 1.0901-0.73025 1.4605-0.73025 0.64558 0 1.2594 0.26458 1.7357 0.762 0.46567 0.49742 0.73025 1.1642 0.73025 1.8732 0 1.4393-1.1112 2.6247-2.4659 2.6247-0.47625 0-1.0689-0.13758-1.4605-0.81492zm1.3123-1.0583c0.381 0 0.73025-0.14817 0.99483-0.41275s0.41275-0.635 0.41275-1.0372c0-0.40217-0.14817-0.77258-0.41275-1.0478-0.26458-0.26458-0.61383-0.40217-0.99483-0.40217s-0.73025 0.13758-0.98425 0.41275c-0.254 0.26458-0.39158 0.62442-0.39158 1.0372 0 0.83608 0.58208 1.4499 1.3758 1.4499zm0-2.5823c0.29633 0 0.5715 0.10583 0.77258 0.3175 0.20108 0.20108 0.3175 0.49742 0.3175 0.81492s-0.11642 0.60325-0.3175 0.81492c-0.20108 0.20108-0.47625 0.3175-0.77258 0.3175-0.29633 0-0.56092-0.11642-0.75142-0.3175-0.20108-0.20108-0.30692-0.49742-0.30692-0.81492 0-0.32808 0.10583-0.61383 0.30692-0.8255 0.1905-0.20108 0.45508-0.30692 0.75142-0.30692z"/>
  </g>
  <path d="m7.0491 25.496c-2.3562 0-4.2646 1.9095-4.2646 4.2646 0 1.8846 1.2218 3.4828 2.9159 4.046 0.21323 0.04016 0.29142-0.09169 0.29142-0.20506 0-0.10129-0.0036-0.3696-0.0054-0.72498-1.1862 0.2573-1.4364-0.57217-1.4364-0.57217-0.19404-0.49221-0.47444-0.6237-0.47444-0.6237-0.3863-0.2644 0.02984-0.25908 0.02984-0.25908 0.42824 0.02986 0.65319 0.43925 0.65319 0.43925 0.38026 0.65213 0.99827 0.46378 1.2421 0.35467 0.03837-0.27578 0.14819-0.46378 0.27009-0.57039-0.9471-0.10661-1.9425-0.47337-1.9425-2.1074 0-0.46555 0.16525-0.84581 0.4389-1.1443-0.04798-0.10768-0.19191-0.54125 0.03731-1.1287 0 0 0.35716-0.11444 1.1728 0.43712 0.34117-0.09488 0.70366-0.1418 1.0661-0.14393 0.36249 0.0021 0.72498 0.04904 1.0661 0.14393 0.81027-0.55156 1.1674-0.43712 1.1674-0.43712 0.22922 0.58745 0.08529 1.021 0.04265 1.1287 0.27187 0.29852 0.43712 0.67878 0.43712 1.1443 0 1.6383-0.99685 1.999-1.9457 2.1039 0.14926 0.12794 0.28786 0.3895 0.28786 0.78895 0 0.57074-0.0054 1.0292-0.0054 1.1678 0 0.11194 0.07463 0.24522 0.29319 0.20257 1.7062-0.55937 2.9269-2.1586 2.9269-4.0403 0-2.3551-1.9095-4.2646-4.2646-4.2646" stroke-width=".35538"/>
 </g>
</svg>
