<?xml version="1.0" encoding="UTF-8"?>
<!-- Created with Inkscape (http://www.inkscape.org/) -->
<svg width="65.789mm" height="8.4184mm" version="1.1" viewBox="0 0 65.789406 8.4183836" xmlns="http://www.w3.org/2000/svg" xmlns:cc="http://creativecommons.org/ns#" xmlns:dc="http://purl.org/dc/elements/1.1/" xmlns:rdf="http://www.w3.org/1999/02/22-rdf-syntax-ns#">
 <metadata>
  <rdf:RDF>
   <cc:Work rdf:about="">
    <dc:format>image/svg+xml</dc:format>
    <dc:type rdf:resource="http://purl.org/dc/dcmitype/StillImage"/>
    <dc:title/>
   </cc:Work>
  </rdf:RDF>
 </metadata>
 <g transform="translate(-2.6458 -1.5465)">
  <text x="18.120584" y="9.5898333" fill="#000000" font-family="siffon" font-size="10.583px" letter-spacing="0px" stroke-width=".26458" word-spacing="0px" style="line-height:1.25" xml:space="preserve"><tspan x="18.120584" y="9.5898333" fill="#a7d8d3" font-family="Sifonn" letter-spacing="0px" stroke-width=".26458">Facebook</tspan></text>
  <path d="m10.505 1.6469h-7.4002c-0.25335 0-0.45888 0.20552-0.45888 0.45888v7.4002c0 0.2537 0.20552 0.45888 0.45888 0.45888h3.9836v-3.2211h-1.0845v-1.255h1.0845v-0.92711c0-1.0741 0.65643-1.6584 1.6147-1.6584 0.45922 0 0.85398 0.033619 0.96905 0.048868v1.1229h-0.66579c-0.51987 0-0.62108 0.24989-0.62108 0.6138v0.80095h1.2422l-0.16116 1.2581h-1.081v3.217h2.1194c0.25404 0 0.45922-0.20518 0.45922-0.45888v-7.4002c0-0.25335-0.20518-0.45888-0.45888-0.45888" fill="#a7d8d3" stroke-width=".34658"/>
 </g>
</svg>
