<?xml version="1.0" encoding="UTF-8"?>
<!-- Created with Inkscape (http://www.inkscape.org/) -->
<svg width="65.789mm" height="8.4184mm" version="1.1" viewBox="0 0 65.789406 8.4183826" xmlns="http://www.w3.org/2000/svg" xmlns:cc="http://creativecommons.org/ns#" xmlns:dc="http://purl.org/dc/elements/1.1/" xmlns:rdf="http://www.w3.org/1999/02/22-rdf-syntax-ns#">
 <metadata>
  <rdf:RDF>
   <cc:Work rdf:about="">
    <dc:format>image/svg+xml</dc:format>
    <dc:type rdf:resource="http://purl.org/dc/dcmitype/StillImage"/>
    <dc:title/>
   </cc:Work>
  </rdf:RDF>
 </metadata>
 <g transform="translate(-2.6458 -1.5465)" fill="#a7d8d3">
  <g stroke-width=".26458" aria-label="Facebook">
   <path d="m20.724 6.2878h2.9633v-1.7886h-2.9633v-1.1536h2.5506v-1.7992h-4.5085v8.2021h1.9579zm-1.6404-4.4238h3.8735v1.1642h-2.5506v1.7886h2.9633v1.1536h-2.9633v3.4607h-1.3229z"/>
   <path d="m26.893 9.865c0.37042 0 0.81492-0.10583 1.143-0.30692v0.1905h1.8203v-5.6621h-1.8203v0.21167c-0.3175-0.1905-0.762-0.32808-1.143-0.32808-0.37042 0-0.74083 0.084667-1.0795 0.23283-0.32808 0.14817-0.62442 0.35983-0.889 0.635-0.52917 0.56092-0.81492 1.3018-0.81492 2.0849 0 0.78317 0.28575 1.5134 0.80433 2.0743 0.52917 0.56092 1.2277 0.86783 1.9791 0.86783zm0-5.5774c0.4445 0 1.0689 0.127 1.4605 0.74083v-0.62442h1.1853v5.0271h-1.1853v-0.6985c-0.40217 0.6985-0.98425 0.81492-1.4605 0.81492-1.3652 0-2.4659-1.1747-2.4659-2.6247 0-0.6985 0.26458-1.3652 0.73025-1.8627 0.46567-0.49742 1.0901-0.77258 1.7357-0.77258zm0.14817 4.0852c0.79375 0 1.3758-0.61383 1.3758-1.4499 0-0.40217-0.13758-0.77258-0.39158-1.0372s-0.60325-0.41275-0.98425-0.41275-0.73025 0.14817-0.99483 0.41275-0.41275 0.635-0.41275 1.0372c0 0.40217 0.14817 0.77258 0.42333 1.0478 0.254 0.254 0.60325 0.40217 0.98425 0.40217zm0-2.5823c0.29633 0 0.56092 0.11642 0.75142 0.3175 0.20108 0.20108 0.30692 0.49742 0.30692 0.81492 0 0.32808-0.10583 0.61383-0.30692 0.8255-0.1905 0.20108-0.45508 0.30692-0.75142 0.30692-0.29633 0-0.5715-0.10583-0.77258-0.30692-0.20108-0.21167-0.3175-0.508-0.3175-0.8255s0.11642-0.60325 0.3175-0.81492c0.20108-0.20108 0.47625-0.3175 0.77258-0.3175z"/>
   <path d="m33.408 9.865c0.75142 0 1.4711-0.27517 2.032-0.79375 0.55033-0.508 0.889-1.1959 0.94192-1.9262l0.010583-0.16933h-1.8521l-0.01058 0.13758c-0.08467 0.56092-0.53975 0.94192-1.1218 0.94192-0.29633 0-0.56092-0.10583-0.762-0.30692-0.21167-0.21167-0.32808-0.508-0.32808-0.8255s0.11642-0.60325 0.32808-0.81492c0.20108-0.20108 0.47625-0.3175 0.762-0.3175 0.37042 0 0.65617 0.13758 0.87842 0.41275l0.09525 0.127 1.4499-1.1324-0.10583-0.11642c-0.27517-0.33867-0.62442-0.61383-1.016-0.80433-0.40217-0.20108-0.84667-0.30692-1.3018-0.30692-0.78317 0-1.5134 0.30692-2.0743 0.86783-0.55033 0.55033-0.85725 1.2912-0.85725 2.0849 0 0.39158 0.08467 0.78317 0.23283 1.143 0.14817 0.34925 0.35983 0.66675 0.62442 0.93133 0.56092 0.56092 1.2912 0.86783 2.0743 0.86783zm0-5.5774c0.41275 0 0.80433 0.09525 1.1642 0.27517 0.29633 0.13758 0.5715 0.34925 0.80433 0.59267l-0.9525 0.74083c-0.26458-0.28575-0.60325-0.42333-1.016-0.42333-0.37042 0-0.73025 0.14817-0.99483 0.41275-0.26458 0.26458-0.41275 0.635-0.41275 1.0372 0 0.40217 0.14817 0.77258 0.42333 1.0478 0.254 0.254 0.60325 0.40217 0.98425 0.40217 0.37042 0 0.68792-0.11642 0.9525-0.33867 0.22225-0.1905 0.381-0.4445 0.45508-0.74083h1.2382c-0.08467 0.59267-0.381 1.1324-0.8255 1.5452-0.49742 0.45508-1.143 0.70908-1.8203 0.70908-0.6985 0-1.3547-0.27517-1.8415-0.77258-0.49742-0.49742-0.77258-1.1536-0.77258-1.8521 0-0.70908 0.27517-1.3652 0.77258-1.8627 0.48683-0.49742 1.143-0.77258 1.8415-0.77258z"/>
   <path d="m39.839 9.865c0.49742 0 0.99483-0.10583 1.4288-0.3175 0.45508-0.21167 0.81492-0.508 1.0583-0.86783l0.084666-0.11642-1.4499-1.1218c-0.26458 0.46567-0.64558 0.61383-1.1112 0.61383h-0.04233l2.7622-1.9791-0.03175-0.11642c-0.17992-0.52917-0.53975-1.0266-1.016-1.3864-0.52917-0.39158-1.1536-0.60325-1.8098-0.60325-0.78317 0-1.5134 0.30692-2.0743 0.86783-0.55033 0.55033-0.85725 1.2912-0.85725 2.0849 0 1.6192 1.3758 2.9422 3.0586 2.9422zm-0.127-5.5774c0.59267 0 1.1536 0.1905 1.6192 0.53975 0.39158 0.29633 0.6985 0.68792 0.85725 1.1218l-3.0798 2.2119c0.20108 0.1905 0.58208 0.21167 0.73025 0.21167 0.49742 0 0.92075-0.16933 1.1853-0.47625l0.9525 0.73025c-0.45508 0.56092-1.2806 0.92075-2.1378 0.92075-1.5028 0-2.7411-1.1747-2.7411-2.6247 0-0.70908 0.27517-1.3652 0.77258-1.8627 0.48683-0.49742 1.143-0.77258 1.8415-0.77258zm0.99483 1.6087c-0.32808-0.32808-0.68792-0.42333-0.99483-0.42333-0.37042 0-0.73025 0.14817-0.99483 0.41275-0.254 0.254-0.41275 0.62442-0.41275 0.99483 0 0.21167 0.05292 0.42333 0.15875 0.61383zm-0.99483-0.10583c0.16933 0 0.3175 0.03175 0.45508 0.10583l-1.5346 1.1007c-0.010583-0.021167-0.010583-0.052917-0.010583-0.074083 0-0.3175 0.11642-0.60325 0.32808-0.81492 0.20108-0.20108 0.47625-0.3175 0.762-0.3175z"/>
   <path d="m46.126 9.865c0.75142 0 1.4499-0.3175 1.9791-0.87842 0.51858-0.55033 0.80433-1.2912 0.80433-2.0638 0-0.79375-0.29633-1.5346-0.8255-2.0849-0.254-0.27517-0.55033-0.48683-0.87842-0.635-0.34925-0.15875-0.70908-0.23283-1.0795-0.23283-0.381 0-0.8255 0.127-1.143 0.3175v-2.7411h-1.8203v8.2021h1.8203v-0.20108c0.11642 0.074083 0.24342 0.127 0.33867 0.16933 0.254 0.09525 0.53975 0.14817 0.80433 0.14817zm-1.4605-0.43392h-1.1853v-7.5671h1.1853v3.1538c0.39158-0.58208 1.0901-0.73025 1.4605-0.73025 0.64558 0 1.2594 0.26458 1.7357 0.762 0.46567 0.49742 0.73025 1.1642 0.73025 1.8732 0 1.4393-1.1112 2.6247-2.4659 2.6247-0.47625 0-1.0689-0.13758-1.4605-0.81492zm1.3123-1.0583c0.381 0 0.73025-0.14817 0.99483-0.41275 0.26458-0.26458 0.41275-0.635 0.41275-1.0372 0-0.40217-0.14817-0.77258-0.41275-1.0477-0.26458-0.26458-0.61383-0.40217-0.99483-0.40217s-0.73025 0.13758-0.98425 0.41275c-0.254 0.26458-0.39158 0.62442-0.39158 1.0372 0 0.83608 0.58208 1.4499 1.3758 1.4499zm0-2.5823c0.29633 0 0.5715 0.10583 0.77258 0.3175 0.20108 0.20108 0.3175 0.49742 0.3175 0.81492s-0.11642 0.60325-0.3175 0.81492c-0.20108 0.20108-0.47625 0.3175-0.77258 0.3175-0.29633 0-0.56092-0.11642-0.75142-0.3175-0.20108-0.20108-0.30692-0.49742-0.30692-0.81492 0-0.32808 0.10583-0.61383 0.30692-0.8255 0.1905-0.20108 0.45508-0.30692 0.75142-0.30692z"/>
   <path d="m52.238 9.865c0.40217 0 0.78317-0.074083 1.1536-0.23283 0.34925-0.14817 0.66675-0.35983 0.94192-0.635 0.27517-0.26458 0.49742-0.58208 0.64558-0.93133 0.15875-0.35983 0.23283-0.75142 0.23283-1.143 0-0.78317-0.30692-1.524-0.87842-2.0849-0.27517-0.27517-0.59267-0.48683-0.94192-0.635-0.37042-0.15875-0.75142-0.23283-1.1536-0.23283-0.78317 0-1.5134 0.30692-2.0743 0.86783-0.55033 0.55033-0.85725 1.2912-0.85725 2.0849 0 0.39158 0.08467 0.78317 0.23283 1.143 0.14817 0.34925 0.35983 0.66675 0.62442 0.93133 0.56092 0.56092 1.2912 0.86783 2.0743 0.86783zm0-5.5774c0.70908 0 1.3758 0.27517 1.8732 0.77258 0.508 0.49742 0.78317 1.1642 0.78317 1.8627 0 0.6985-0.27517 1.3547-0.78317 1.8521-0.24342 0.24342-0.52917 0.43392-0.84667 0.56092-0.32808 0.13758-0.66675 0.21167-1.0266 0.21167-0.6985 0-1.3547-0.27517-1.8415-0.77258-0.49742-0.49742-0.77258-1.1536-0.77258-1.8521 0-0.70908 0.27517-1.3652 0.77258-1.8627 0.48683-0.49742 1.143-0.77258 1.8415-0.77258zm0 4.0852c0.40217 0 0.762-0.14817 1.0266-0.40217 0.27517-0.26458 0.41275-0.635 0.41275-1.0478 0-0.40217-0.13758-0.77258-0.41275-1.0372-0.26458-0.26458-0.62442-0.41275-1.0266-0.41275-0.37042 0-0.73025 0.14817-0.99483 0.41275-0.26458 0.26458-0.41275 0.635-0.41275 1.0372 0 0.40217 0.14817 0.77258 0.42333 1.0478 0.254 0.254 0.60325 0.40217 0.98425 0.40217zm0-2.5823c0.65617 0 1.1218 0.47625 1.1218 1.1324 0 0.32808-0.10583 0.61383-0.3175 0.8255-0.20108 0.20108-0.48683 0.30692-0.80433 0.30692-0.29633 0-0.56092-0.10583-0.762-0.30692-0.21167-0.21167-0.32808-0.508-0.32808-0.8255s0.11642-0.60325 0.32808-0.81492c0.20108-0.20108 0.47625-0.3175 0.762-0.3175z"/>
   <path d="m58.543 9.865c0.40217 0 0.78317-0.074083 1.1536-0.23283 0.34925-0.14817 0.66675-0.35983 0.94192-0.635 0.27517-0.26458 0.49742-0.58208 0.64558-0.93133 0.15875-0.35983 0.23283-0.75142 0.23283-1.143 0-0.78317-0.30692-1.524-0.87842-2.0849-0.27517-0.27517-0.59267-0.48683-0.94192-0.635-0.37042-0.15875-0.75142-0.23283-1.1536-0.23283-0.78317 0-1.5134 0.30692-2.0743 0.86783-0.55033 0.55033-0.85725 1.2912-0.85725 2.0849 0 0.39158 0.08467 0.78317 0.23283 1.143 0.14817 0.34925 0.35983 0.66675 0.62442 0.93133 0.56092 0.56092 1.2912 0.86783 2.0743 0.86783zm0-5.5774c0.70908 0 1.3758 0.27517 1.8732 0.77258 0.508 0.49742 0.78317 1.1642 0.78317 1.8627 0 0.6985-0.27517 1.3547-0.78317 1.8521-0.24342 0.24342-0.52917 0.43392-0.84667 0.56092-0.32808 0.13758-0.66675 0.21167-1.0266 0.21167-0.6985 0-1.3547-0.27517-1.8415-0.77258-0.49742-0.49742-0.77258-1.1536-0.77258-1.8521 0-0.70908 0.27517-1.3652 0.77258-1.8627 0.48683-0.49742 1.143-0.77258 1.8415-0.77258zm0 4.0852c0.40217 0 0.762-0.14817 1.0266-0.40217 0.27517-0.26458 0.41275-0.635 0.41275-1.0478 0-0.40217-0.13758-0.77258-0.41275-1.0372-0.26458-0.26458-0.62442-0.41275-1.0266-0.41275-0.37042 0-0.73025 0.14817-0.99483 0.41275-0.26458 0.26458-0.41275 0.635-0.41275 1.0372 0 0.40217 0.14817 0.77258 0.42333 1.0478 0.254 0.254 0.60325 0.40217 0.98425 0.40217zm0-2.5823c0.65617 0 1.1218 0.47625 1.1218 1.1324 0 0.32808-0.10583 0.61383-0.3175 0.8255-0.20108 0.20108-0.48683 0.30692-0.80433 0.30692-0.29633 0-0.56092-0.10583-0.762-0.30692-0.21167-0.21167-0.32808-0.508-0.32808-0.8255s0.11642-0.60325 0.32808-0.81492c0.20108-0.20108 0.47625-0.3175 0.762-0.3175z"/>
   <path d="m65.482 6.7535 2.8681-2.667h-2.3389l-2.0532 1.9262v-4.4662h-1.8203v8.2021h1.8203v-1.5663l0.26458-0.254 1.8521 1.8203h2.3601zm-1.2488 0.73025-0.59267 0.56092v1.3864h-1.1853v-7.5671h1.1853v4.8789l2.4977-2.3389h1.397l-2.5082 2.3389 2.6564 2.6882h-1.4711z"/>
  </g>
  <path d="m10.505 1.6469h-7.4002c-0.25335 0-0.45888 0.20552-0.45888 0.45888v7.4002c0 0.2537 0.20552 0.45888 0.45888 0.45888h3.9836v-3.2211h-1.0845v-1.255h1.0845v-0.92711c0-1.0741 0.65643-1.6584 1.6147-1.6584 0.45922 0 0.85398 0.033619 0.96905 0.048868v1.1229h-0.66579c-0.51987 0-0.62108 0.24989-0.62108 0.6138v0.80095h1.2422l-0.16116 1.2581h-1.081v3.217h2.1194c0.25404 0 0.45922-0.20518 0.45922-0.45888v-7.4002c0-0.25335-0.20518-0.45888-0.45888-0.45888" stroke-width=".34658"/>
 </g>
</svg>
