<?xml version="1.0" encoding="UTF-8"?>
<!-- Created with Inkscape (http://www.inkscape.org/) -->
<svg width="52.153mm" height="8.5513mm" version="1.1" viewBox="0 0 52.153278 8.5512533" xmlns="http://www.w3.org/2000/svg" xmlns:cc="http://creativecommons.org/ns#" xmlns:dc="http://purl.org/dc/elements/1.1/" xmlns:rdf="http://www.w3.org/1999/02/22-rdf-syntax-ns#">
 <metadata>
  <rdf:RDF>
   <cc:Work rdf:about="">
    <dc:format>image/svg+xml</dc:format>
    <dc:type rdf:resource="http://purl.org/dc/dcmitype/StillImage"/>
    <dc:title/>
   </cc:Work>
  </rdf:RDF>
 </metadata>
 <g transform="translate(-2.7845 -25.496)">
  <text x="18.113232" y="33.75098" fill="#000000" font-family="siffon" font-size="10.583px" letter-spacing="0px" stroke-width=".26458" word-spacing="0px" style="line-height:1.25" xml:space="preserve"><tspan x="18.113232" y="33.75098" fill="#a7d8d3" font-family="Sifonn" letter-spacing="0px" stroke-width=".26458">GitHub</tspan></text>
  <path d="m7.0491 25.496c-2.3562 0-4.2646 1.9095-4.2646 4.2646 0 1.8846 1.2218 3.4828 2.9159 4.046 0.21323 0.04016 0.29142-0.09169 0.29142-0.20506 0-0.10129-0.0036-0.3696-0.0054-0.72498-1.1862 0.2573-1.4364-0.57217-1.4364-0.57217-0.19404-0.49221-0.47444-0.6237-0.47444-0.6237-0.3863-0.2644 0.02984-0.25908 0.02984-0.25908 0.42824 0.02986 0.65319 0.43925 0.65319 0.43925 0.38026 0.65213 0.99827 0.46378 1.2421 0.35467 0.03837-0.27578 0.14819-0.46378 0.27009-0.57039-0.9471-0.10661-1.9425-0.47337-1.9425-2.1074 0-0.46555 0.16525-0.84581 0.4389-1.1443-0.04798-0.10768-0.19191-0.54125 0.03731-1.1287 0 0 0.35716-0.11444 1.1728 0.43712 0.34117-0.09488 0.70366-0.1418 1.0661-0.14393 0.36249 0.0021 0.72498 0.04904 1.0661 0.14393 0.81027-0.55156 1.1674-0.43712 1.1674-0.43712 0.22922 0.58745 0.08529 1.021 0.04265 1.1287 0.27187 0.29852 0.43712 0.67878 0.43712 1.1443 0 1.6383-0.99685 1.999-1.9457 2.1039 0.14926 0.12794 0.28786 0.3895 0.28786 0.78895 0 0.57074-0.0054 1.0292-0.0054 1.1678 0 0.11194 0.07463 0.24522 0.29319 0.20257 1.7062-0.55937 2.9269-2.1586 2.9269-4.0403 0-2.3551-1.9095-4.2646-4.2646-4.2646" fill="#a7d8d3" stroke-width=".35538"/>
 </g>
</svg>
