<?xml version="1.0" encoding="UTF-8"?>
<!-- Created with Inkscape (http://www.inkscape.org/) -->
<svg width="37.166mm" height="8.8397mm" version="1.1" viewBox="0 0 37.165574 8.8397217" xmlns="http://www.w3.org/2000/svg" xmlns:cc="http://creativecommons.org/ns#" xmlns:dc="http://purl.org/dc/elements/1.1/" xmlns:rdf="http://www.w3.org/1999/02/22-rdf-syntax-ns#">
 <metadata>
  <rdf:RDF>
   <cc:Work rdf:about="">
    <dc:format>image/svg+xml</dc:format>
    <dc:type rdf:resource="http://purl.org/dc/dcmitype/StillImage"/>
    <dc:title/>
   </cc:Work>
  </rdf:RDF>
 </metadata>
 <g transform="translate(-2.6069 -37.299)">
  <g fill="#000000" font-family="siffon" font-size="10.583px" letter-spacing="0px" stroke-width=".26458" word-spacing="0px">
   <text x="18.268221" y="20.907389" style="line-height:1.25" xml:space="preserve"><tspan x="18.268221" y="20.907389" fill="#a7d8d3" font-family="Sifonn" letter-spacing="0px" stroke-width=".26458">Twitter</tspan></text>
   <text x="18.113232" y="33.75098" style="line-height:1.25" xml:space="preserve"><tspan x="18.113232" y="33.75098" fill="#a7d8d3" font-family="Sifonn" letter-spacing="0px" stroke-width=".26458">GitHub</tspan></text>
   <text x="18.491207" y="45.649635" style="line-height:1.25" xml:space="preserve"><tspan x="18.491207" y="45.649635" fill="#a7d8d3" font-family="Sifonn" letter-spacing="0px" stroke-width=".26458">Mail</tspan></text>
  </g>
  <g fill="#a7d8d3">
   <path d="m7.0491 25.496c-2.3562 0-4.2646 1.9095-4.2646 4.2646 0 1.8846 1.2218 3.4828 2.9159 4.046 0.21323 0.04016 0.29142-0.09169 0.29142-0.20506 0-0.10129-0.0036-0.3696-0.0054-0.72498-1.1862 0.2573-1.4364-0.57217-1.4364-0.57217-0.19404-0.49221-0.47444-0.6237-0.47444-0.6237-0.3863-0.2644 0.02984-0.25908 0.02984-0.25908 0.42824 0.02986 0.65319 0.43925 0.65319 0.43925 0.38026 0.65213 0.99827 0.46378 1.2421 0.35467 0.03837-0.27578 0.14819-0.46378 0.27009-0.57039-0.9471-0.10661-1.9425-0.47337-1.9425-2.1074 0-0.46555 0.16525-0.84581 0.4389-1.1443-0.04798-0.10768-0.19191-0.54125 0.03731-1.1287 0 0 0.35716-0.11444 1.1728 0.43712 0.34117-0.09488 0.70366-0.1418 1.0661-0.14393 0.36249 0.0021 0.72498 0.04904 1.0661 0.14393 0.81027-0.55156 1.1674-0.43712 1.1674-0.43712 0.22922 0.58745 0.08529 1.021 0.04265 1.1287 0.27187 0.29852 0.43712 0.67878 0.43712 1.1443 0 1.6383-0.99685 1.999-1.9457 2.1039 0.14926 0.12794 0.28786 0.3895 0.28786 0.78895 0 0.57074-0.0054 1.0292-0.0054 1.1678 0 0.11194 0.07463 0.24522 0.29319 0.20257 1.7062-0.55937 2.9269-2.1586 2.9269-4.0403 0-2.3551-1.9095-4.2646-4.2646-4.2646" stroke-width=".35538"/>
   <path d="m11.961 38.679v6.7817c0 0.3843-0.25334 0.67817-0.58462 0.67817h-0.58462v-6.1546l-3.5077 2.922-3.5077-2.922v6.1546h-0.58462c-0.33168 0-0.58462-0.29387-0.58462-0.67817v-6.7817c0-0.19215 0.063137-0.36169 0.16798-0.48286 0.10484-0.12298 0.25139-0.19531 0.41664-0.19531h0.19487l3.8975 3.2778 3.8975-3.2778h0.19487c0.16564 0 0.3118 0.07324 0.41664 0.19531 0.10524 0.12117 0.16798 0.29071 0.16798 0.48286z" stroke-width=".41977"/>
   <path d="m12.073 14.441c-0.37737 0.16587-0.78033 0.27887-1.2046 0.33047 0.43238-0.26054 0.76498-0.67117 0.92233-1.1611-0.40552 0.23666-0.85496 0.40893-1.3334 0.50487-0.38206-0.40893-0.92659-0.66478-1.5312-0.66478-1.1586 0-2.0979 0.93938-2.0979 2.0967 0 0.1663 0.01919 0.3262 0.05415 0.47929-1.744-0.08231-3.2898-0.91977-4.3242-2.1858-0.18208 0.30787-0.28399 0.66563-0.28399 1.0554 0 0.72916 0.37098 1.3701 0.93299 1.7466-0.34411-0.01112-0.66776-0.10576-0.95004-0.26267v0.02601c0 1.017 0.72191 1.8651 1.6826 2.0583-0.17611 0.04733-0.36202 0.07291-0.55263 0.07291-0.13389 0-0.26224-0.01273-0.39059-0.03666 0.26906 0.83278 1.0426 1.44 1.9632 1.457-0.71637 0.56244-1.6242 0.8976-2.602 0.8976-0.1663 0-0.33217-0.0098-0.4989-0.02857 0.93341 0.59442 2.0331 0.94194 3.2224 0.94194 3.8607 0 5.9693-3.1964 5.9693-5.9638 0-0.08912 0-0.17909-0.0064-0.26864 0.40978-0.2938 0.76754-0.6652 1.049-1.0865z" stroke-width=".42641"/>
  </g>
  <text x="18.120584" y="9.5898333" fill="#000000" font-family="siffon" font-size="10.583px" letter-spacing="0px" stroke-width=".26458" word-spacing="0px" style="line-height:1.25" xml:space="preserve"><tspan x="18.120584" y="9.5898333" fill="#a7d8d3" font-family="Sifonn" letter-spacing="0px" stroke-width=".26458">Facebook</tspan></text>
  <path d="m10.505 1.6469h-7.4002c-0.25335 0-0.45888 0.20552-0.45888 0.45888v7.4002c0 0.2537 0.20552 0.45888 0.45888 0.45888h3.9836v-3.2211h-1.0845v-1.255h1.0845v-0.92711c0-1.0741 0.65643-1.6584 1.6147-1.6584 0.45922 0 0.85398 0.033619 0.96905 0.048868v1.1229h-0.66579c-0.51987 0-0.62108 0.24989-0.62108 0.6138v0.80095h1.2422l-0.16116 1.2581h-1.081v3.217h2.1194c0.25404 0 0.45922-0.20518 0.45922-0.45888v-7.4002c0-0.25335-0.20518-0.45888-0.45888-0.45888" fill="#a7d8d3" stroke-width=".34658"/>
 </g>
</svg>
