<!-- Generator: Adobe Illustrator 19.0.0, SVG Export Plug-In  -->
<svg version="1.1"
	 xmlns="http://www.w3.org/2000/svg" xmlns:xlink="http://www.w3.org/1999/xlink" xmlns:a="http://ns.adobe.com/AdobeSVGViewerExtensions/3.0/"
	 x="0px" y="0px" width="512px" height="512px" viewBox="0 0 512 512" style="enable-background:new 0 0 512 512;"
	 xml:space="preserve">
<style type="text/css">
	.st0{fill:#A2A2A2;}
</style>
<defs>
</defs>
<g>
	<path class="st0" d="M107.2,197.7v139.6c0,1.2,2.2,3.5,5.7,3.5h286.1c3.5,0,5.7-2.3,5.7-3.5V198.9l-149.3,80.4L107.2,197.7z"/>
	<path class="st0" d="M400.3,171.3c-0.4-0.1-0.8-0.1-1.2-0.1H114l141.8,78L400.3,171.3z"/>
	<path class="st0" d="M256,0C114.6,0,0,114.6,0,256s114.6,256,256,256s256-114.6,256-256S397.4,0,256,0z M430,337.3
		c0,17.3-13.9,31.3-31,31.3H112.9c-17.1,0-30.9-14-30.9-31.3V174.7c0-17.3,13.9-31.3,30.9-31.3h286.1c17.1,0,31,14,31,31.3V337.3z"
		/>
</g>
</svg>
