<?xml version="1.0" encoding="UTF-8"?>
<!-- Created with Inkscape (http://www.inkscape.org/) -->
<svg width="37.166mm" height="8.6254mm" version="1.1" viewBox="0 0 37.165569 8.6254158" xmlns="http://www.w3.org/2000/svg" xmlns:cc="http://creativecommons.org/ns#" xmlns:dc="http://purl.org/dc/elements/1.1/" xmlns:rdf="http://www.w3.org/1999/02/22-rdf-syntax-ns#">
 <metadata>
  <rdf:RDF>
   <cc:Work rdf:about="">
    <dc:format>image/svg+xml</dc:format>
    <dc:type rdf:resource="http://purl.org/dc/dcmitype/StillImage"/>
    <dc:title/>
   </cc:Work>
  </rdf:RDF>
 </metadata>
 <g transform="translate(-2.6069 -37.299)" fill="#a7d8d3">
  <g stroke-width=".26458" aria-label="Mail">
   <path d="m27.847 37.299-4.3498 3.3126-4.3603-3.3126v8.509h1.9579v-4.6038l2.4024 1.7357 2.4024-1.7357v4.6038h1.9473zm-1.6298 3.2808-2.7199 1.9685-2.7199-1.9685v4.9107h-1.3229v-7.5459l4.0428 3.0586 4.0322-3.0586v7.5459h-1.3123z"/>
   <path d="m31.48 45.925c0.37042 0 0.81492-0.10583 1.143-0.30692v0.1905h1.8203v-5.6621h-1.8203v0.21167c-0.3175-0.1905-0.762-0.32808-1.143-0.32808-0.37042 0-0.74083 0.08467-1.0795 0.23283-0.32808 0.14817-0.62442 0.35983-0.889 0.635-0.52917 0.56092-0.81492 1.3018-0.81492 2.0849 0 0.78317 0.28575 1.5134 0.80433 2.0743 0.52917 0.56092 1.2277 0.86783 1.9791 0.86783zm0-5.5774c0.4445 0 1.0689 0.127 1.4605 0.74083v-0.62442h1.1853v5.0271h-1.1853v-0.6985c-0.40217 0.6985-0.98425 0.81492-1.4605 0.81492-1.3652 0-2.4659-1.1748-2.4659-2.6247 0-0.6985 0.26458-1.3652 0.73025-1.8627 0.46567-0.49742 1.0901-0.77258 1.7357-0.77258zm0.14817 4.0852c0.79375 0 1.3758-0.61383 1.3758-1.4499 0-0.40217-0.13758-0.77258-0.39158-1.0372-0.254-0.26458-0.60325-0.41275-0.98425-0.41275s-0.73025 0.14817-0.99483 0.41275c-0.26458 0.26458-0.41275 0.635-0.41275 1.0372 0 0.40217 0.14817 0.77258 0.42333 1.0478 0.254 0.254 0.60325 0.40217 0.98425 0.40217zm0-2.5823c0.29633 0 0.56092 0.11642 0.75142 0.3175 0.20108 0.20108 0.30692 0.49742 0.30692 0.81492 0 0.32808-0.10583 0.61383-0.30692 0.8255-0.1905 0.20108-0.45508 0.30692-0.75142 0.30692-0.29633 0-0.5715-0.10583-0.77258-0.30692-0.20108-0.21167-0.3175-0.508-0.3175-0.8255s0.11642-0.60325 0.3175-0.81492c0.20108-0.20108 0.47625-0.3175 0.77258-0.3175z"/>
   <path d="m37.106 40.146h-1.8203v5.6621h1.8203zm-1.5028 0.3175h1.1853v5.0271h-1.1853zm0.58208-0.94192c0.28575 0 0.55033-0.10583 0.75142-0.29633s0.30692-0.4445 0.30692-0.71967c0-0.254-0.11642-0.508-0.30692-0.68792-0.20108-0.1905-0.46567-0.29633-0.75142-0.29633-0.26458 0-0.51858 0.10583-0.71967 0.29633-0.1905 0.1905-0.30692 0.4445-0.30692 0.68792 0 0.55033 0.46567 1.016 1.0266 1.016zm0-1.6827c0.40217 0 0.74083 0.30692 0.74083 0.66675 0 0.17992-0.07408 0.35983-0.21167 0.48683-0.13758 0.13758-0.32808 0.21167-0.52917 0.21167-0.17992 0-0.35983-0.07408-0.49742-0.21167-0.13758-0.127-0.21167-0.30692-0.21167-0.48683 0-0.15875 0.07408-0.32808 0.21167-0.45508 0.13758-0.13758 0.3175-0.21167 0.49742-0.21167z"/>
   <path d="m39.772 37.606h-1.8203v8.2021h1.8203zm-1.5028 0.3175h1.1853v7.5671h-1.1853z"/>
  </g>
  <path d="m11.961 38.35v6.7817c0 0.3843-0.25334 0.67817-0.58462 0.67817h-0.58462v-6.1546l-3.5077 2.922-3.5077-2.922v6.1546h-0.58462c-0.33168 0-0.58462-0.29387-0.58462-0.67817v-6.7817c0-0.19215 0.063137-0.36169 0.16798-0.48286 0.10484-0.12298 0.25139-0.19531 0.41664-0.19531h0.19487l3.8975 3.2778 3.8975-3.2778h0.19487c0.16564 0 0.3118 0.07324 0.41664 0.19531 0.10524 0.12117 0.16798 0.29071 0.16798 0.48286z" stroke-width=".41977"/>
 </g>
</svg>
