<?xml version="1.0" encoding="UTF-8"?>
<!-- Created with Inkscape (http://www.inkscape.org/) -->
<svg width="37.166mm" height="8.8397mm" version="1.1" viewBox="0 0 37.165573 8.8397217" xmlns="http://www.w3.org/2000/svg" xmlns:cc="http://creativecommons.org/ns#" xmlns:dc="http://purl.org/dc/elements/1.1/" xmlns:rdf="http://www.w3.org/1999/02/22-rdf-syntax-ns#">
 <metadata>
  <rdf:RDF>
   <cc:Work rdf:about="">
    <dc:format>image/svg+xml</dc:format>
    <dc:type rdf:resource="http://purl.org/dc/dcmitype/StillImage"/>
    <dc:title/>
   </cc:Work>
  </rdf:RDF>
 </metadata>
 <g transform="translate(-2.6069 -37.299)">
  <text x="18.491207" y="45.649635" fill="#000000" font-family="siffon" font-size="10.583px" letter-spacing="0px" stroke-width=".26458" word-spacing="0px" style="line-height:1.25" xml:space="preserve"><tspan x="18.491207" y="45.649635" fill="#a7d8d3" font-family="Sifonn" letter-spacing="0px" stroke-width=".26458">Mail</tspan></text>
  <path d="m11.961 38.679v6.7817c0 0.3843-0.25334 0.67817-0.58462 0.67817h-0.58462v-6.1546l-3.5077 2.922-3.5077-2.922v6.1546h-0.58462c-0.33168 0-0.58462-0.29387-0.58462-0.67817v-6.7817c0-0.19215 0.063137-0.36169 0.16798-0.48286 0.10484-0.12298 0.25139-0.19531 0.41664-0.19531h0.19487l3.8975 3.2778 3.8975-3.2778h0.19487c0.16564 0 0.3118 0.07324 0.41664 0.19531 0.10524 0.12117 0.16798 0.29071 0.16798 0.48286z" fill="#a7d8d3" stroke-width=".41977"/>
 </g>
</svg>
