<?xml version="1.0" encoding="UTF-8"?>
<!-- Created with Inkscape (http://www.inkscape.org/) -->
<svg width="49.913mm" height="8.9887mm" version="1.1" viewBox="0 0 49.912842 8.9887333" xmlns="http://www.w3.org/2000/svg" xmlns:cc="http://creativecommons.org/ns#" xmlns:dc="http://purl.org/dc/elements/1.1/" xmlns:rdf="http://www.w3.org/1999/02/22-rdf-syntax-ns#">
 <metadata>
  <rdf:RDF>
   <cc:Work rdf:about="">
    <dc:format>image/svg+xml</dc:format>
    <dc:type rdf:resource="http://purl.org/dc/dcmitype/StillImage"/>
    <dc:title/>
   </cc:Work>
  </rdf:RDF>
 </metadata>
 <g transform="translate(-1.8584 -12.779)">
  <text x="18.268221" y="20.907389" fill="#000000" font-family="siffon" font-size="10.583px" letter-spacing="0px" stroke-width=".26458" word-spacing="0px" style="line-height:1.25" xml:space="preserve"><tspan x="18.268221" y="20.907389" fill="#a7d8d3" font-family="Sifonn" letter-spacing="0px" stroke-width=".26458">Twitter</tspan></text>
  <path d="m12.073 14.441c-0.37737 0.16587-0.78033 0.27887-1.2046 0.33047 0.43238-0.26054 0.76498-0.67117 0.92233-1.1611-0.40552 0.23666-0.85496 0.40893-1.3334 0.50487-0.38206-0.40893-0.92659-0.66478-1.5312-0.66478-1.1586 0-2.0979 0.93938-2.0979 2.0967 0 0.1663 0.01919 0.3262 0.05415 0.47929-1.744-0.08231-3.2898-0.91977-4.3242-2.1858-0.18208 0.30787-0.28399 0.66563-0.28399 1.0554 0 0.72916 0.37098 1.3701 0.93299 1.7466-0.34411-0.01112-0.66776-0.10576-0.95004-0.26267v0.02601c0 1.017 0.72191 1.8651 1.6826 2.0583-0.17611 0.04733-0.36202 0.07291-0.55263 0.07291-0.13389 0-0.26224-0.01273-0.39059-0.03666 0.26906 0.83278 1.0426 1.44 1.9632 1.457-0.71637 0.56244-1.6242 0.8976-2.602 0.8976-0.1663 0-0.33217-0.0098-0.4989-0.02857 0.93341 0.59442 2.0331 0.94194 3.2224 0.94194 3.8607 0 5.9693-3.1964 5.9693-5.9638 0-0.08912 0-0.17909-0.0064-0.26864 0.40978-0.2938 0.76754-0.6652 1.049-1.0865z" fill="#a7d8d3" stroke-width=".42641"/>
 </g>
</svg>
