<?xml version="1.0" encoding="UTF-8"?>
<!-- Created with Inkscape (http://www.inkscape.org/) -->
<svg width="49.913mm" height="8.6254mm" version="1.1" viewBox="0 0 49.912842 8.6254158" xmlns="http://www.w3.org/2000/svg" xmlns:cc="http://creativecommons.org/ns#" xmlns:dc="http://purl.org/dc/elements/1.1/" xmlns:rdf="http://www.w3.org/1999/02/22-rdf-syntax-ns#">
 <metadata>
  <rdf:RDF>
   <cc:Work rdf:about="">
    <dc:format>image/svg+xml</dc:format>
    <dc:type rdf:resource="http://purl.org/dc/dcmitype/StillImage"/>
    <dc:title/>
   </cc:Work>
  </rdf:RDF>
 </metadata>
 <g transform="translate(-1.8584 -12.779)" fill="#a7d8d3">
  <g stroke-width=".26458" aria-label="Twitter">
   <path d="m22.269 14.663h2.0743v-1.7992h-5.9796v1.7992h1.9473v6.4029h1.9579zm-1.6404-0.3175h-1.9473v-1.1642h5.3446v1.1642h-2.0743v6.4029h-1.3229z"/>
   <path d="m31.545 15.404h-1.8309l-1.0266 2.3389-1.1218-2.3389h-1.7886l0.79375 1.6933-0.30692 0.66675-1.1853-2.3601h-2.0214l3.175 5.9902 1.1959-2.5082 1.2065 2.5188zm-6.6569 0.3175 1.3758 2.7728 0.65617-1.397-0.635-1.3758h1.0795l1.3441 2.7834 1.2171-2.7834h1.1112l-2.4024 4.953-1.2065-2.5188-1.2171 2.5294-2.6247-4.9636z"/>
   <path d="m33.534 15.404h-1.8203v5.6621h1.8203zm-1.5028 0.3175h1.1853v5.0271h-1.1853zm0.58208-0.94192c0.28575 0 0.55033-0.10583 0.75142-0.29633s0.30692-0.4445 0.30692-0.71967c0-0.254-0.11642-0.508-0.30692-0.68792-0.20108-0.1905-0.46567-0.29633-0.75142-0.29633-0.26458 0-0.51858 0.10583-0.71967 0.29633-0.1905 0.1905-0.30692 0.4445-0.30692 0.68792 0 0.55033 0.46567 1.016 1.0266 1.016zm0-1.6828c0.40217 0 0.74083 0.30692 0.74083 0.66675 0 0.17992-0.07408 0.35983-0.21167 0.48683-0.13758 0.13758-0.32808 0.21167-0.52917 0.21167-0.17992 0-0.35983-0.07408-0.49742-0.21167-0.13758-0.127-0.21167-0.30692-0.21167-0.48683 0-0.15875 0.07408-0.32808 0.21167-0.45508 0.13758-0.13758 0.3175-0.21167 0.49742-0.21167z"/>
   <path d="m37.799 19.373h-0.15875c-0.3175 0-0.59267-0.0635-0.78317-0.1905-0.1905-0.11642-0.29633-0.29633-0.29633-0.52917v-1.5452h1.27v-1.7039h-1.27v-1.9368l-1.8203 1.3123v0.62442h-0.80433v1.7039h0.80433v1.5875c0 0.35983 0.07408 0.70908 0.22225 1.016 0.13758 0.30692 0.34925 0.5715 0.61383 0.79375 0.254 0.21167 0.56092 0.381 0.92075 0.49742 0.34925 0.11642 0.74083 0.17992 1.143 0.17992h0.15875zm-3.5454-3.6512h0.80433v-0.77258l1.1853-0.86783v1.6404h1.27v1.0689h-1.27v1.8627c0 0.60325 0.47625 0.98425 1.2382 1.0372v1.1748c-0.66675-0.03175-1.27-0.24342-1.7039-0.60325-0.46567-0.39158-0.71967-0.94192-0.71967-1.5663v-1.905h-0.80433z"/>
   <path d="m41.726 19.373h-0.15875c-0.3175 0-0.59267-0.0635-0.78317-0.1905-0.1905-0.11642-0.29633-0.29633-0.29633-0.52917v-1.5452h1.27v-1.7039h-1.27v-1.9368l-1.8203 1.3123v0.62442h-0.80433v1.7039h0.80433v1.5875c0 0.35983 0.07408 0.70908 0.22225 1.016 0.13758 0.30692 0.34925 0.5715 0.61383 0.79375 0.254 0.21167 0.56092 0.381 0.92075 0.49742 0.34925 0.11642 0.74083 0.17992 1.143 0.17992h0.15875zm-3.5454-3.6512h0.80433v-0.77258l1.1853-0.86783v1.6404h1.27v1.0689h-1.27v1.8627c0 0.60325 0.47625 0.98425 1.2382 1.0372v1.1748c-0.66675-0.03175-1.27-0.24342-1.7039-0.60325-0.46567-0.39158-0.71967-0.94192-0.71967-1.5663v-1.905h-0.80433z"/>
   <path d="m45.072 21.183c0.49742 0 0.99483-0.10583 1.4288-0.3175 0.45508-0.21167 0.81492-0.508 1.0583-0.86783l0.08467-0.11642-1.4499-1.1218c-0.26458 0.46567-0.64558 0.61383-1.1112 0.61383h-0.04233l2.7622-1.9791-0.03175-0.11642c-0.17992-0.52917-0.53975-1.0266-1.016-1.3864-0.52917-0.39158-1.1536-0.60325-1.8098-0.60325-0.78317 0-1.5134 0.30692-2.0743 0.86783-0.55033 0.55033-0.85725 1.2912-0.85725 2.0849 0 1.6192 1.3758 2.9422 3.0586 2.9422zm-0.127-5.5774c0.59267 0 1.1536 0.1905 1.6192 0.53975 0.39158 0.29633 0.6985 0.68792 0.85725 1.1218l-3.0798 2.2119c0.20108 0.1905 0.58208 0.21167 0.73025 0.21167 0.49742 0 0.92075-0.16933 1.1853-0.47625l0.9525 0.73025c-0.45508 0.56092-1.2806 0.92075-2.1378 0.92075-1.5028 0-2.7411-1.1748-2.7411-2.6247 0-0.70908 0.27517-1.3652 0.77258-1.8627 0.48683-0.49742 1.143-0.77258 1.8415-0.77258zm0.99483 1.6087c-0.32808-0.32808-0.68792-0.42333-0.99483-0.42333-0.37042 0-0.73025 0.14817-0.99483 0.41275-0.254 0.254-0.41275 0.62442-0.41275 0.99483 0 0.21167 0.05292 0.42333 0.15875 0.61383zm-0.99483-0.10583c0.16933 0 0.3175 0.03175 0.45508 0.10583l-1.5346 1.1007c-0.01058-0.02117-0.01058-0.05292-0.01058-0.07408 0-0.3175 0.11642-0.60325 0.32808-0.81492 0.20108-0.20108 0.47625-0.3175 0.762-0.3175z"/>
   <path d="m50.216 18.24c0-0.37042 0.09525-0.66675 0.27517-0.86783 0.16933-0.17992 0.39158-0.26458 0.64558-0.26458 0.15875 0 0.29633 0.02117 0.42333 0.0635l0.21167 0.07408v-1.9156l-0.13758-0.02117c-0.14817-0.02117-0.26458-0.02117-0.39158-0.02117-0.381 0-0.74083 0.10583-1.0266 0.29633v-0.17992h-1.8203v5.6621h1.8203zm-1.5028-2.5188h1.1853v0.60325l0.27517-0.28575c0.35983-0.381 0.8255-0.43392 1.0689-0.43392h0.21167v1.2065c-0.09525-0.02117-0.20108-0.02117-0.3175-0.02117-0.33867 0-0.65617 0.127-0.87842 0.37042-0.23283 0.26458-0.35983 0.635-0.35983 1.0795v2.5082h-1.1853z"/>
  </g>
  <path d="m12.073 13.912c-0.37737 0.16587-0.78033 0.27887-1.2046 0.33047 0.43238-0.26054 0.76498-0.67117 0.92233-1.1611-0.40552 0.23666-0.85496 0.40893-1.3334 0.50487-0.38206-0.40893-0.92659-0.66478-1.5312-0.66478-1.1586 0-2.0979 0.93938-2.0979 2.0967 0 0.1663 0.01919 0.3262 0.05415 0.47929-1.744-0.08231-3.2898-0.91977-4.3242-2.1858-0.18208 0.30787-0.28399 0.66563-0.28399 1.0554 0 0.72916 0.37098 1.3701 0.93299 1.7466-0.34411-0.01112-0.66776-0.10576-0.95004-0.26267v0.02601c0 1.017 0.72191 1.8651 1.6826 2.0583-0.17611 0.04733-0.36202 0.07291-0.55263 0.07291-0.13389 0-0.26224-0.01273-0.39059-0.03666 0.26906 0.83278 1.0426 1.44 1.9632 1.457-0.71637 0.56244-1.6242 0.8976-2.602 0.8976-0.1663 0-0.33217-0.0098-0.4989-0.02857 0.93341 0.59442 2.0331 0.94194 3.2224 0.94194 3.8607 0 5.9693-3.1964 5.9693-5.9638 0-0.08912 0-0.17909-0.0064-0.26864 0.40978-0.2938 0.76754-0.6652 1.049-1.0865z" stroke-width=".42641"/>
 </g>
</svg>
