<?xml version="1.0" encoding="UTF-8" standalone="no"?>
<!-- Created with Inkscape (http://www.inkscape.org/) -->

<svg
   xmlns:dc="http://purl.org/dc/elements/1.1/"
   xmlns:cc="http://creativecommons.org/ns#"
   xmlns:rdf="http://www.w3.org/1999/02/22-rdf-syntax-ns#"
   xmlns:svg="http://www.w3.org/2000/svg"
   xmlns="http://www.w3.org/2000/svg"
   xmlns:sodipodi="http://sodipodi.sourceforge.net/DTD/sodipodi-0.dtd"
   xmlns:inkscape="http://www.inkscape.org/namespaces/inkscape"
   width="210mm"
   height="297mm"
   viewBox="0 0 210 297"
   version="1.1"
   id="svg135"
   sodipodi:docname="inkscape.svg"
   inkscape:version="0.92.2 5c3e80d, 2017-08-06">
  <defs
     id="defs129" />
  <sodipodi:namedview
     id="base"
     pagecolor="#ffffff"
     bordercolor="#666666"
     borderopacity="1.0"
     inkscape:pageopacity="0.0"
     inkscape:pageshadow="2"
     inkscape:zoom="1.4142136"
     inkscape:cx="182.34767"
     inkscape:cy="997.73516"
     inkscape:document-units="mm"
     inkscape:current-layer="layer1"
     showgrid="false"
     inkscape:window-width="1680"
     inkscape:window-height="1005"
     inkscape:window-x="0"
     inkscape:window-y="1"
     inkscape:window-maximized="1" />
  <metadata
     id="metadata132">
    <rdf:RDF>
      <cc:Work
         rdf:about="">
        <dc:format>image/svg+xml</dc:format>
        <dc:type
           rdf:resource="http://purl.org/dc/dcmitype/StillImage" />
        <dc:title></dc:title>
      </cc:Work>
    </rdf:RDF>
  </metadata>
  <g
     inkscape:label="Layer 1"
     inkscape:groupmode="layer"
     id="layer1">
    <text
       id="text4712"
       y="20.907389"
       x="18.268221"
       style="font-style:normal;font-variant:normal;font-weight:normal;font-stretch:normal;font-size:10.58333302px;line-height:1.25;font-family:siffon;-inkscape-font-specification:siffon;letter-spacing:0px;word-spacing:0px;fill:#000000;fill-opacity:1;stroke:none;stroke-width:0.26458332"
       xml:space="preserve"><tspan
         style="font-style:normal;font-variant:normal;font-weight:normal;font-stretch:normal;font-family:Sifonn;-inkscape-font-specification:Sifonn;letter-spacing:0px;fill:#a7d8d3;fill-opacity:1;stroke-width:0.26458332"
         y="20.907389"
         x="18.268221"
         id="tspan4710"
         sodipodi:role="line">Twitter</tspan></text>
    <text
       xml:space="preserve"
       style="font-style:normal;font-variant:normal;font-weight:normal;font-stretch:normal;font-size:10.58333302px;line-height:1.25;font-family:siffon;-inkscape-font-specification:siffon;letter-spacing:0px;word-spacing:0px;fill:#000000;fill-opacity:1;stroke:none;stroke-width:0.26458332"
       x="18.113232"
       y="33.75098"
       id="text4716"><tspan
         sodipodi:role="line"
         id="tspan4714"
         x="18.113232"
         y="33.75098"
         style="font-style:normal;font-variant:normal;font-weight:normal;font-stretch:normal;font-family:Sifonn;-inkscape-font-specification:Sifonn;letter-spacing:0px;fill:#a7d8d3;fill-opacity:1;stroke-width:0.26458332">GitHub</tspan></text>
    <text
       id="text4720"
       y="45.649635"
       x="18.491207"
       style="font-style:normal;font-variant:normal;font-weight:normal;font-stretch:normal;font-size:10.58333302px;line-height:1.25;font-family:siffon;-inkscape-font-specification:siffon;letter-spacing:0px;word-spacing:0px;fill:#000000;fill-opacity:1;stroke:none;stroke-width:0.26458332"
       xml:space="preserve"><tspan
         style="font-style:normal;font-variant:normal;font-weight:normal;font-stretch:normal;font-family:Sifonn;-inkscape-font-specification:Sifonn;letter-spacing:0px;fill:#a7d8d3;fill-opacity:1;stroke-width:0.26458332"
         y="45.649635"
         x="18.491207"
         id="tspan4718"
         sodipodi:role="line">Mail</tspan></text>
    <path
       id="path4970"
       d="m 7.0490878,25.49606 c -2.356189,0 -4.264596,1.909472 -4.264596,4.264595 0,1.884596 1.221807,3.482754 2.915917,4.046035 0.21323,0.04016 0.291415,-0.09169 0.291415,-0.205055 0,-0.101289 -0.0036,-0.369599 -0.0054,-0.724981 -1.186226,0.257296 -1.436416,-0.572168 -1.436416,-0.572168 -0.194039,-0.492206 -0.474437,-0.623696 -0.474437,-0.623696 -0.386301,-0.264405 0.02984,-0.259075 0.02984,-0.259075 0.428237,0.02986 0.653194,0.439253 0.653194,0.439253 0.380261,0.652128 0.998271,0.463776 1.242064,0.354673 0.03837,-0.275777 0.148194,-0.463776 0.270092,-0.57039 -0.947096,-0.106609 -1.942524,-0.473371 -1.942524,-2.107421 0,-0.465552 0.165253,-0.845811 0.438897,-1.144333 -0.04798,-0.107683 -0.191907,-0.541249 0.03731,-1.128697 0,0 0.357161,-0.114439 1.172764,0.437122 0.341167,-0.09488 0.703658,-0.141798 1.066149,-0.143931 0.36249,0.0021 0.724981,0.04904 1.066148,0.143931 0.810274,-0.551555 1.167434,-0.437122 1.167434,-0.437122 0.2292215,0.587448 0.08529,1.021016 0.04265,1.128697 0.2718675,0.298522 0.4371205,0.678781 0.4371205,1.144333 0,1.638315 -0.9968485,1.999029 -1.9457215,2.103866 0.149261,0.127938 0.287861,0.389501 0.287861,0.788951 0,0.570745 -0.0054,1.02919 -0.0054,1.167788 0,0.111941 0.07463,0.245215 0.29319,0.202569 1.7061962,-0.559372 2.9269372,-2.158596 2.9269372,-4.040349 0,-2.355123 -1.9094732,-4.264595 -4.2645962,-4.264595"
       inkscape:connector-curvature="0"
       style="fill:#a7d8d3;stroke-width:0.35538295" />
    <path
       id="path5026"
       d="m 11.960858,38.679274 v 6.781666 c 0,0.384295 -0.253337,0.678167 -0.584623,0.678167 h -0.584623 v -6.154589 l -3.5077338,2.921994 -3.507734,-2.921994 v 6.154589 H 3.1915224 c -0.3316752,0 -0.5846226,-0.293872 -0.5846226,-0.678167 v -6.781666 c 0,-0.192148 0.063137,-0.361688 0.1679807,-0.482855 0.1048381,-0.12298 0.2513888,-0.195312 0.4166419,-0.195312 h 0.1948745 l 3.8974813,3.277805 3.8974828,-3.277805 h 0.194874 c 0.165643,0 0.311799,0.07324 0.416641,0.195312 0.105236,0.121169 0.167982,0.290707 0.167982,0.482855 z"
       inkscape:connector-curvature="0"
       style="fill:#a7d8d3;stroke-width:0.41977313" />
    <path
       id="path5086"
       d="m 12.072668,14.440669 c -0.377374,0.165874 -0.780332,0.278874 -1.204612,0.330469 0.432382,-0.260537 0.764983,-0.671171 0.922328,-1.161117 -0.405517,0.236658 -0.854955,0.408927 -1.333388,0.504871 -0.382065,-0.408929 -0.9265918,-0.664776 -1.5312428,-0.664776 -1.158559,0 -2.097943,0.939384 -2.097943,2.096664 0,0.166301 0.01919,0.326205 0.05415,0.479286 -1.744022,-0.08231 -3.289762,-0.919768 -4.324235,-2.185783 -0.182078,0.307868 -0.283991,0.665627 -0.283991,1.055368 0,0.729162 0.370979,1.370059 0.932987,1.74658 -0.344112,-0.01112 -0.667759,-0.105756 -0.950043,-0.262669 v 0.02601 c 0,1.01699 0.721914,1.865121 1.682619,2.058285 -0.176108,0.04733 -0.362024,0.07291 -0.552629,0.07291 -0.133894,0 -0.262243,-0.01273 -0.390593,-0.03666 0.269065,0.832782 1.042576,1.439991 1.963197,1.457048 -0.716371,0.562436 -1.6242,0.897596 -2.601962,0.897596 -0.166299,0 -0.332173,-0.0098 -0.4989,-0.02857 0.933414,0.594417 2.033128,0.941941 3.222389,0.941941 3.860728,0 5.9693298,-3.196377 5.9693298,-5.963786 0,-0.08912 0,-0.179093 -0.0064,-0.26864 0.409782,-0.293797 0.76754,-0.665202 1.048971,-1.086495 z"
       inkscape:connector-curvature="0"
       style="fill:#a7d8d3;stroke-width:0.42641118" />
    <text
       xml:space="preserve"
       style="font-style:normal;font-variant:normal;font-weight:normal;font-stretch:normal;font-size:10.58333302px;line-height:1.25;font-family:siffon;-inkscape-font-specification:siffon;letter-spacing:0px;word-spacing:0px;fill:#000000;fill-opacity:1;stroke:none;stroke-width:0.26458332"
       x="18.120584"
       y="9.5898333"
       id="text139"><tspan
         sodipodi:role="line"
         id="tspan137"
         x="18.120584"
         y="9.5898333"
         style="font-style:normal;font-variant:normal;font-weight:normal;font-stretch:normal;font-family:Sifonn;-inkscape-font-specification:Sifonn;letter-spacing:0px;fill:#a7d8d3;fill-opacity:1;stroke-width:0.26458332">Facebook</tspan></text>
    <path
       id="path4910"
       d="M 10.504957,1.6468835 H 3.1047092 c -0.253352,0 -0.4588758,0.205524 -0.4588758,0.4588764 v 7.4002474 c 0,0.253699 0.2055238,0.458876 0.4588758,0.458876 H 7.0883385 V 6.7437379 H 6.0038797 V 5.4887596 H 7.0883385 V 4.5616494 c 0,-1.0740617 0.6564295,-1.6584011 1.6147319,-1.6584011 0.4592233,0 0.8539811,0.033619 0.9690473,0.048868 V 4.0750462 H 9.0063303 c -0.5198748,0 -0.6210763,0.2498866 -0.6210763,0.6137991 V 5.4897992 H 9.6274075 L 9.4662464,6.747897 H 8.385254 v 3.2169863 h 2.119356 c 0.254045,0 0.459224,-0.205177 0.459224,-0.458876 V 2.1057599 c 0,-0.2533524 -0.205179,-0.4588764 -0.458877,-0.4588764"
       inkscape:connector-curvature="0"
       style="fill:#a7d8d3;stroke-width:0.34658328" />
  </g>
</svg>
